<svg width="900" height="230" viewBox="0 0 900 230" fill="none" xmlns="http://www.w3.org/2000/svg">
<rect width="900" height="230" fill="url(#paint0_linear_60_18)"/>
<path d="M404.245 115.456C402.693 115.456 401.381 115.208 400.309 114.712C399.253 114.216 398.445 113.536 397.885 112.672C397.325 111.792 397.045 110.8 397.045 109.696H400.381C400.381 110.16 400.509 110.616 400.765 111.064C401.021 111.496 401.429 111.848 401.989 112.12C402.565 112.392 403.317 112.528 404.245 112.528C405.077 112.528 405.773 112.408 406.333 112.168C406.893 111.928 407.309 111.616 407.581 111.232C407.853 110.832 407.989 110.384 407.989 109.888C407.989 109.264 407.725 108.768 407.197 108.4C406.669 108.016 405.853 107.776 404.749 107.68L403.213 107.56C401.533 107.416 400.189 106.896 399.181 106C398.189 105.088 397.693 103.888 397.693 102.4C397.693 101.28 397.957 100.32 398.485 99.52C399.013 98.704 399.749 98.08 400.693 97.648C401.653 97.2 402.773 96.976 404.053 96.976C405.381 96.976 406.525 97.208 407.485 97.672C408.445 98.136 409.189 98.792 409.717 99.64C410.245 100.472 410.509 101.456 410.509 102.592H407.173C407.173 102.112 407.053 101.672 406.813 101.272C406.589 100.856 406.245 100.528 405.781 100.288C405.333 100.032 404.757 99.904 404.053 99.904C403.381 99.904 402.821 100.016 402.373 100.24C401.925 100.464 401.589 100.768 401.365 101.152C401.141 101.536 401.029 101.952 401.029 102.4C401.029 102.944 401.229 103.424 401.629 103.84C402.029 104.24 402.661 104.472 403.525 104.536L405.061 104.68C406.309 104.776 407.405 105.04 408.349 105.472C409.293 105.904 410.021 106.488 410.533 107.224C411.061 107.96 411.325 108.848 411.325 109.888C411.325 110.992 411.037 111.968 410.461 112.816C409.885 113.648 409.061 114.296 407.989 114.76C406.933 115.224 405.685 115.456 404.245 115.456ZM414.345 115V97.48H417.681V115H414.345ZM412.713 99.976V97.48H417.681V99.976H412.713ZM422.114 115V101.968H425.45V115H422.114ZM420.29 104.464V101.968H425.45V104.464H420.29ZM423.338 100.408C422.682 100.408 422.194 100.24 421.874 99.904C421.57 99.552 421.418 99.12 421.418 98.608C421.418 98.064 421.57 97.624 421.874 97.288C422.194 96.952 422.682 96.784 423.338 96.784C423.994 96.784 424.474 96.952 424.778 97.288C425.082 97.624 425.234 98.064 425.234 98.608C425.234 99.12 425.082 99.552 424.778 99.904C424.474 100.24 423.994 100.408 423.338 100.408ZM434.694 115.432C433.782 115.432 432.942 115.264 432.174 114.928C431.406 114.592 430.742 114.12 430.182 113.512C429.622 112.904 429.19 112.2 428.886 111.4C428.582 110.584 428.43 109.704 428.43 108.76V108.256C428.43 107.328 428.574 106.456 428.862 105.64C429.166 104.824 429.582 104.112 430.11 103.504C430.654 102.896 431.302 102.424 432.054 102.088C432.822 101.736 433.67 101.56 434.598 101.56C435.622 101.56 436.518 101.784 437.286 102.232C438.07 102.664 438.694 103.32 439.158 104.2C439.622 105.08 439.878 106.184 439.926 107.512L438.942 106.36V97.48H442.278V115H439.638V109.456H440.214C440.166 110.784 439.894 111.896 439.398 112.792C438.902 113.672 438.246 114.336 437.43 114.784C436.63 115.216 435.718 115.432 434.694 115.432ZM435.438 112.624C436.094 112.624 436.694 112.48 437.238 112.192C437.782 111.888 438.214 111.456 438.534 110.896C438.87 110.32 439.038 109.648 439.038 108.88V107.92C439.038 107.152 438.87 106.512 438.534 106C438.198 105.472 437.758 105.072 437.214 104.8C436.67 104.512 436.078 104.368 435.438 104.368C434.718 104.368 434.078 104.544 433.518 104.896C432.974 105.232 432.542 105.712 432.222 106.336C431.918 106.96 431.766 107.688 431.766 108.52C431.766 109.352 431.926 110.08 432.246 110.704C432.566 111.312 432.998 111.784 433.542 112.12C434.102 112.456 434.734 112.624 435.438 112.624ZM451.908 115.456C450.788 115.456 449.804 115.264 448.956 114.88C448.124 114.496 447.428 113.984 446.868 113.344C446.324 112.688 445.908 111.96 445.62 111.16C445.348 110.36 445.212 109.544 445.212 108.712V108.256C445.212 107.392 445.348 106.56 445.62 105.76C445.908 104.944 446.324 104.224 446.868 103.6C447.428 102.96 448.116 102.456 448.932 102.088C449.748 101.704 450.692 101.512 451.764 101.512C453.172 101.512 454.348 101.824 455.292 102.448C456.252 103.056 456.972 103.864 457.452 104.872C457.932 105.864 458.172 106.936 458.172 108.088V109.288H446.628V107.248H456.084L455.052 108.256C455.052 107.424 454.932 106.712 454.692 106.12C454.452 105.528 454.084 105.072 453.588 104.752C453.108 104.432 452.5 104.272 451.764 104.272C451.028 104.272 450.404 104.44 449.892 104.776C449.38 105.112 448.988 105.6 448.716 106.24C448.46 106.864 448.332 107.616 448.332 108.496C448.332 109.312 448.46 110.04 448.716 110.68C448.972 111.304 449.364 111.8 449.892 112.168C450.42 112.52 451.092 112.696 451.908 112.696C452.724 112.696 453.388 112.536 453.9 112.216C454.412 111.88 454.74 111.472 454.884 110.992H457.956C457.764 111.888 457.396 112.672 456.852 113.344C456.308 114.016 455.612 114.536 454.764 114.904C453.932 115.272 452.98 115.456 451.908 115.456ZM470.866 115.408C469.074 115.408 467.666 115.032 466.642 114.28C465.634 113.512 465.106 112.456 465.058 111.112H468.058C468.106 111.56 468.354 111.968 468.802 112.336C469.25 112.704 469.954 112.888 470.914 112.888C471.714 112.888 472.346 112.744 472.81 112.456C473.29 112.168 473.53 111.776 473.53 111.28C473.53 110.848 473.346 110.504 472.978 110.248C472.626 109.992 472.018 109.824 471.154 109.744L470.002 109.624C468.546 109.464 467.426 109.048 466.642 108.376C465.858 107.704 465.466 106.808 465.466 105.688C465.466 104.792 465.69 104.04 466.138 103.432C466.586 102.824 467.202 102.368 467.986 102.064C468.786 101.744 469.698 101.584 470.722 101.584C472.322 101.584 473.618 101.936 474.61 102.64C475.602 103.344 476.122 104.376 476.17 105.736H473.17C473.138 105.288 472.914 104.904 472.498 104.584C472.082 104.264 471.482 104.104 470.698 104.104C469.994 104.104 469.45 104.24 469.066 104.512C468.682 104.784 468.49 105.136 468.49 105.568C468.49 105.984 468.642 106.304 468.946 106.528C469.266 106.752 469.778 106.904 470.482 106.984L471.634 107.104C473.17 107.264 474.37 107.688 475.234 108.376C476.114 109.064 476.554 109.992 476.554 111.16C476.554 112.024 476.314 112.776 475.834 113.416C475.37 114.04 474.714 114.528 473.866 114.88C473.018 115.232 472.018 115.408 470.866 115.408ZM485.094 115.456C483.958 115.456 482.974 115.264 482.142 114.88C481.326 114.496 480.638 113.984 480.078 113.344C479.534 112.704 479.126 111.984 478.854 111.184C478.582 110.384 478.446 109.568 478.446 108.736V108.28C478.446 107.4 478.582 106.56 478.854 105.76C479.142 104.944 479.566 104.224 480.126 103.6C480.686 102.96 481.374 102.456 482.19 102.088C483.022 101.704 483.982 101.512 485.07 101.512C486.206 101.512 487.222 101.736 488.118 102.184C489.014 102.616 489.726 103.224 490.254 104.008C490.798 104.792 491.102 105.704 491.166 106.744H487.926C487.846 106.072 487.558 105.512 487.062 105.064C486.582 104.616 485.918 104.392 485.07 104.392C484.334 104.392 483.718 104.568 483.222 104.92C482.742 105.272 482.382 105.76 482.142 106.384C481.902 106.992 481.782 107.696 481.782 108.496C481.782 109.264 481.894 109.96 482.118 110.584C482.358 111.208 482.718 111.696 483.198 112.048C483.694 112.4 484.326 112.576 485.094 112.576C485.67 112.576 486.166 112.472 486.582 112.264C486.998 112.056 487.326 111.768 487.566 111.4C487.822 111.032 487.982 110.616 488.046 110.152H491.286C491.222 111.208 490.91 112.136 490.35 112.936C489.806 113.72 489.078 114.336 488.166 114.784C487.27 115.232 486.246 115.456 485.094 115.456ZM493.959 115V101.968H496.599V107.488H496.527C496.527 105.616 496.927 104.2 497.727 103.24C498.527 102.28 499.703 101.8 501.255 101.8H501.735V104.704H500.823C499.703 104.704 498.831 105.008 498.207 105.616C497.599 106.208 497.295 107.072 497.295 108.208V115H493.959ZM510.137 115.456C508.985 115.456 507.969 115.272 507.089 114.904C506.209 114.536 505.465 114.04 504.857 113.416C504.249 112.776 503.785 112.056 503.465 111.256C503.161 110.456 503.009 109.624 503.009 108.76V108.256C503.009 107.36 503.169 106.512 503.489 105.712C503.825 104.896 504.297 104.176 504.905 103.552C505.529 102.912 506.281 102.416 507.161 102.064C508.041 101.696 509.033 101.512 510.137 101.512C511.241 101.512 512.233 101.696 513.113 102.064C513.993 102.416 514.737 102.912 515.345 103.552C515.969 104.176 516.441 104.896 516.761 105.712C517.081 106.512 517.241 107.36 517.241 108.256V108.76C517.241 109.624 517.081 110.456 516.761 111.256C516.457 112.056 516.001 112.776 515.393 113.416C514.785 114.04 514.041 114.536 513.161 114.904C512.281 115.272 511.273 115.456 510.137 115.456ZM510.137 112.6C510.953 112.6 511.641 112.424 512.201 112.072C512.761 111.704 513.185 111.216 513.473 110.608C513.761 109.984 513.905 109.28 513.905 108.496C513.905 107.696 513.753 106.992 513.449 106.384C513.161 105.76 512.729 105.272 512.153 104.92C511.593 104.552 510.921 104.368 510.137 104.368C509.353 104.368 508.673 104.552 508.097 104.92C507.537 105.272 507.105 105.76 506.801 106.384C506.497 106.992 506.345 107.696 506.345 108.496C506.345 109.28 506.489 109.984 506.777 110.608C507.081 111.216 507.513 111.704 508.073 112.072C508.633 112.424 509.321 112.6 510.137 112.6ZM520.33 115V97.48H523.666V115H520.33ZM518.698 99.976V97.48H523.666V99.976H518.698ZM527.642 115V97.48H530.978V115H527.642ZM526.01 99.976V97.48H530.978V99.976H526.01Z" fill="white"/>
<rect x="381" y="98" width="18" height="41" rx="2" transform="rotate(90 381 98)" fill="#67B6FF"/>
<rect x="378" y="122" width="9" height="35" rx="2" transform="rotate(90 378 122)" fill="#00DCB3"/>
<rect x="378" y="84" width="8" height="35" rx="2" transform="rotate(90 378 84)" fill="#00DCB3"/>
<defs>
<linearGradient id="paint0_linear_60_18" x1="450" y1="230" x2="450" y2="0" gradientUnits="userSpaceOnUse">
<stop/>
<stop offset="1" stop-color="#212121"/>
</linearGradient>
</defs>
</svg>
